<svg version="1.1" xmlns="http://www.w3.org/2000/svg" xmlns:xlink="http://www.w3.org/1999/xlink" width="660.000000pt" height="658.000000pt" viewBox="0,0,256,255.21875"><g fill="#ffffff" fill-rule="nonzero" stroke="none" stroke-width="1" stroke-linecap="butt" stroke-linejoin="miter" stroke-miterlimit="10" stroke-dasharray="" stroke-dashoffset="0" font-family="none" font-weight="none" font-size="none" text-anchor="none" style="mix-blend-mode: normal"><g transform="translate(1.15147,0.74091) scale(0.38788,0.38788)"><g transform="translate(0,658) scale(0.1,-0.1)"><path d="M2970,6564c-195,-22 -392,-57 -506,-89c-28,-8 -61,-15 -74,-15c-13,0 -60,-14 -104,-31c-45,-18 -98,-38 -118,-45c-77,-28 -124,-46 -153,-59c-16,-7 -48,-20 -70,-30c-64,-27 -230,-109 -235,-117c-3,-4 -17,-12 -30,-18c-14,-5 -38,-19 -55,-30c-16,-11 -37,-23 -45,-26c-48,-22 -344,-233 -424,-303c-44,-39 -347,-341 -376,-376c-14,-16 -68,-87 -121,-157c-53,-70 -99,-125 -103,-121c-3,3 -6,-2 -6,-11c0,-10 -19,-47 -43,-83c-68,-106 -174,-305 -222,-418c-9,-22 -21,-49 -27,-59c-6,-11 -14,-31 -18,-45c-5,-14 -18,-51 -30,-81c-31,-80 -57,-160 -65,-197c-3,-18 -11,-35 -16,-38c-5,-4 -9,-16 -9,-29c0,-12 -6,-42 -14,-67c-53,-172 -106,-577 -106,-814c0,-144 19,-358 46,-525c18,-107 69,-334 89,-395c7,-22 23,-71 35,-110c20,-64 58,-170 80,-220c85,-194 165,-349 230,-450c11,-16 23,-37 27,-45c3,-8 19,-31 35,-51c15,-20 28,-40 28,-43c0,-4 5,-12 10,-19c6,-7 42,-55 81,-107c38,-52 74,-96 79,-98c6,-2 10,-7 10,-12c0,-14 67,-88 210,-230c146,-147 190,-187 290,-263c36,-27 66,-53 68,-58c2,-5 10,-9 17,-9c7,0 15,-4 17,-8c4,-11 175,-127 211,-143c15,-7 27,-15 27,-19c0,-4 8,-10 18,-13c9,-4 44,-22 77,-41c83,-48 199,-104 320,-156c28,-12 58,-26 67,-31c10,-5 23,-9 29,-9c6,0 25,-6 42,-14c18,-8 57,-22 87,-31c30,-10 66,-22 80,-28c14,-5 41,-13 60,-17c19,-4 80,-19 135,-33c258,-65 451,-87 770,-87c300,0 488,19 735,76c162,38 411,117 472,150c14,7 31,14 36,14c29,0 327,148 429,213c24,15 47,27 53,27c5,0 10,4 10,9c0,5 14,14 30,21c17,7 30,16 30,21c0,5 5,9 11,9c6,0 28,14 49,30c21,17 43,30 49,30c6,0 11,4 11,9c0,5 20,22 45,38c25,15 45,31 45,36c0,4 7,7 15,7c8,0 15,4 15,8c0,5 19,23 43,39c23,17 66,54 96,82c29,28 55,51 57,51c4,0 162,160 199,202c17,19 48,56 70,83c22,27 48,57 58,67c9,10 17,23 17,28c0,6 3,10 8,10c4,0 20,20 35,45c16,25 33,45 38,45c5,0 9,5 9,11c0,6 14,28 30,49c17,21 30,43 30,49c0,6 4,11 9,11c5,0 14,14 21,30c7,17 16,30 20,30c4,0 10,8 14,18c3,9 15,31 26,47c11,17 25,41 30,55c6,13 14,27 18,30c11,8 112,215 112,228c0,7 5,12 10,12c6,0 10,6 10,14c0,8 13,43 29,79c29,65 107,295 135,397c38,140 68,292 90,460c22,157 22,647 1,775c-18,111 -19,126 -4,105c8,-12 9,-9 4,10c-4,14 -13,54 -21,89c-8,35 -21,75 -28,90c-7,14 -16,51 -20,81c-7,56 -14,81 -67,250c-26,85 -42,130 -70,195c-4,11 -20,49 -34,85c-29,71 -130,275 -163,330c-12,19 -26,44 -31,55c-14,31 -163,250 -172,253c-5,2 -9,10 -9,18c0,8 -3,14 -7,14c-5,0 -21,20 -38,45c-16,24 -33,45 -37,45c-5,0 -8,4 -8,10c0,5 -12,22 -27,38c-16,16 -51,55 -79,88c-61,70 -231,238 -291,287c-23,19 -49,41 -57,50c-9,8 -45,37 -81,63c-36,26 -65,51 -65,56c0,4 -5,8 -11,8c-6,0 -28,14 -49,30c-21,17 -43,30 -49,30c-6,0 -11,4 -11,8c0,5 -10,14 -22,21c-13,6 -35,19 -49,29c-125,81 -338,193 -504,262c-84,35 -181,69 -325,114c-364,112 -862,161 -1230,120zM3550,6018c100,-9 278,-40 390,-67c101,-25 166,-44 175,-52c5,-5 18,-9 30,-9c11,0 33,-7 49,-15c15,-8 33,-15 38,-15c5,0 30,-9 56,-21c26,-11 56,-24 67,-29c19,-8 204,-99 263,-129c15,-8 29,-18 30,-23c2,-4 10,-8 17,-8c8,0 37,-20 65,-45c28,-25 56,-42 62,-39c6,4 8,3 5,-3c-4,-6 5,-14 21,-18c15,-4 47,-23 72,-43c24,-20 48,-36 52,-34c5,1 7,-3 6,-9c-2,-6 6,-16 17,-22c31,-19 96,-69 138,-107c58,-53 177,-170 177,-174c0,-2 21,-26 46,-52c58,-62 194,-239 194,-253c0,-6 4,-11 8,-11c5,0 14,-10 21,-22c6,-13 17,-32 24,-43c7,-11 24,-38 37,-60c14,-23 31,-50 37,-60c20,-31 138,-275 157,-325c10,-25 23,-56 28,-70c8,-22 30,-87 58,-176c42,-132 122,-553 111,-589c-1,-5 -2,-97 -2,-205c1,-238 -25,-461 -75,-636c-7,-28 -14,-58 -14,-67c0,-9 -6,-31 -14,-49c-7,-18 -22,-60 -31,-93c-10,-33 -24,-73 -31,-90c-6,-16 -23,-57 -35,-90c-13,-33 -27,-61 -31,-63c-5,-2 -8,-10 -8,-18c0,-22 -114,-237 -176,-331c-19,-28 -34,-54 -34,-57c0,-3 -6,-14 -14,-23c-8,-10 -43,-56 -78,-103c-35,-47 -74,-98 -88,-115c-30,-36 -303,-309 -345,-345c-87,-75 -287,-213 -405,-279c-110,-62 -342,-171 -363,-171c-7,0 -17,-4 -23,-9c-5,-4 -43,-18 -84,-31c-41,-12 -90,-28 -108,-36c-18,-8 -40,-14 -49,-14c-9,0 -39,-6 -67,-14c-62,-18 -181,-41 -301,-58c-123,-18 -581,-17 -700,0c-103,16 -276,49 -320,62c-16,4 -57,16 -90,25c-71,21 -161,50 -195,63c-14,5 -45,18 -70,28c-61,24 -298,140 -335,164c-16,11 -39,24 -50,30c-11,6 -33,19 -50,30c-16,11 -40,25 -52,31c-13,7 -23,16 -23,21c0,4 -4,8 -10,8c-26,0 -263,196 -389,321c-71,72 -156,167 -189,213c-14,20 -29,36 -34,36c-4,0 -8,6 -8,14c0,8 -4,16 -9,18c-10,4 -159,222 -168,246c-4,10 -10,19 -13,22c-4,3 -13,17 -21,32c-32,63 -122,245 -134,273c-38,86 -45,104 -45,117c0,8 -4,18 -8,23c-14,15 -69,198 -96,315c-82,352 -91,701 -29,1080c14,88 22,123 58,255c7,28 16,65 20,82c4,18 11,35 16,38c5,4 9,15 9,27c0,11 6,34 14,51c7,18 21,52 31,77c57,150 221,467 247,478c4,2 8,8 8,13c0,11 42,72 53,77c4,2 7,10 7,17c0,7 3,15 8,17c4,2 20,21 37,43c55,74 192,233 250,290c66,65 220,198 290,250c22,17 42,33 43,38c2,4 10,7 17,7c7,0 15,3 17,8c5,10 66,52 77,52c5,0 11,3 13,8c4,10 124,82 136,82c6,0 12,3 14,8c5,12 232,121 328,157c25,9 60,23 78,31c18,8 41,14 52,14c10,0 21,4 25,9c3,5 20,12 38,16c17,4 55,13 82,20c115,31 175,45 260,59c78,13 140,20 360,40c57,5 240,-2 375,-16z"></path><path d="M3441,4371c-26,-10 -74,-46 -113,-85c-37,-37 -72,-65 -76,-62c-9,5 -36,-14 -46,-34c-22,-47 -40,-67 -102,-114c-62,-48 -83,-72 -115,-133c-7,-13 -16,-23 -20,-23c-9,0 -449,-439 -449,-448c0,-3 -6,-13 -14,-21c-19,-23 -46,-109 -46,-149c0,-20 8,-60 17,-90c21,-65 60,-109 473,-524c146,-147 296,-299 333,-338c83,-86 126,-114 200,-130c125,-28 246,31 308,151c18,35 23,61 23,124c0,70 -4,86 -30,132c-18,33 -138,162 -332,359c-249,251 -302,310 -295,325c4,10 143,154 309,321c195,197 309,319 324,348c32,62 34,188 5,246c-28,54 -96,119 -151,144c-58,25 -142,26 -203,1z"></path></g></g></g></svg>